<?xml version="1.0" encoding="UTF-8" standalone="no"?>
<!-- Created with Inkscape (http://www.inkscape.org/) -->

<svg
   xmlns:dc="http://purl.org/dc/elements/1.1/"
   xmlns:cc="http://creativecommons.org/ns#"
   xmlns:rdf="http://www.w3.org/1999/02/22-rdf-syntax-ns#"
   xmlns:svg="http://www.w3.org/2000/svg"
   xmlns="http://www.w3.org/2000/svg"
   xmlns:xlink="http://www.w3.org/1999/xlink"
   xmlns:sodipodi="http://sodipodi.sourceforge.net/DTD/sodipodi-0.dtd"
   xmlns:inkscape="http://www.inkscape.org/namespaces/inkscape"
   width="124.96883mm"
   height="128.32585mm"
   viewBox="0 0 124.96883 128.32585"
   version="1.1"
   id="svg8"
   inkscape:version="0.92.3 (2405546, 2018-03-11)"
   sodipodi:docname="miro-side.svg">
  <defs
     id="defs2">
    <linearGradient
       inkscape:collect="always"
       id="linearGradient887">
      <stop
         style="stop-color:#2f0200;stop-opacity:1"
         offset="0"
         id="stop883" />
      <stop
         style="stop-color:#610e09;stop-opacity:1"
         offset="1"
         id="stop885" />
    </linearGradient>
    <linearGradient
       inkscape:collect="always"
       id="linearGradient877">
      <stop
         style="stop-color:#ae947b;stop-opacity:1"
         offset="0"
         id="stop873" />
      <stop
         id="stop881"
         offset="0.44995359"
         style="stop-color:#e1c9af;stop-opacity:1" />
      <stop
         style="stop-color:#e1c7ac;stop-opacity:1"
         offset="1"
         id="stop875" />
    </linearGradient>
    <linearGradient
       inkscape:collect="always"
       id="linearGradient869">
      <stop
         style="stop-color:#866f5e;stop-opacity:1"
         offset="0"
         id="stop865" />
      <stop
         style="stop-color:#efd5bc;stop-opacity:1"
         offset="1"
         id="stop867" />
    </linearGradient>
    <linearGradient
       inkscape:collect="always"
       xlink:href="#linearGradient869"
       id="linearGradient871"
       x1="95.816124"
       y1="115.79126"
       x2="106.5069"
       y2="80.91259"
       gradientUnits="userSpaceOnUse" />
    <linearGradient
       inkscape:collect="always"
       xlink:href="#linearGradient877"
       id="linearGradient879"
       x1="125.11012"
       y1="142.02975"
       x2="161.20685"
       y2="114.81548"
       gradientUnits="userSpaceOnUse"
       gradientTransform="translate(0.18898772,-0.28348213)" />
    <linearGradient
       inkscape:collect="always"
       xlink:href="#linearGradient887"
       id="linearGradient889"
       x1="117.5506"
       y1="137.39955"
       x2="134.65402"
       y2="120.01265"
       gradientUnits="userSpaceOnUse"
       gradientTransform="translate(-10.772321,-12.567708)" />
    <linearGradient
       inkscape:collect="always"
       xlink:href="#linearGradient877"
       id="linearGradient904"
       gradientUnits="userSpaceOnUse"
       gradientTransform="translate(0.18898772,-0.28348213)"
       x1="125.11012"
       y1="142.02975"
       x2="161.20685"
       y2="114.81548" />
    <linearGradient
       inkscape:collect="always"
       xlink:href="#linearGradient869"
       id="linearGradient906"
       gradientUnits="userSpaceOnUse"
       x1="95.816124"
       y1="115.79126"
       x2="106.5069"
       y2="80.91259" />
  </defs>
  <sodipodi:namedview
     id="base"
     pagecolor="#ffffff"
     bordercolor="#666666"
     borderopacity="1.0"
     inkscape:pageopacity="0.0"
     inkscape:pageshadow="2"
     inkscape:zoom="0.98994949"
     inkscape:cx="519.82503"
     inkscape:cy="210.58895"
     inkscape:document-units="mm"
     inkscape:current-layer="layer1"
     showgrid="false"
     fit-margin-top="0"
     fit-margin-left="0"
     fit-margin-right="0"
     fit-margin-bottom="0"
     inkscape:window-width="2560"
     inkscape:window-height="1012"
     inkscape:window-x="3840"
     inkscape:window-y="32"
     inkscape:window-maximized="1" />
  <metadata
     id="metadata5">
    <rdf:RDF>
      <cc:Work
         rdf:about="">
        <dc:format>image/svg+xml</dc:format>
        <dc:type
           rdf:resource="http://purl.org/dc/dcmitype/StillImage" />
        <dc:title></dc:title>
      </cc:Work>
    </rdf:RDF>
  </metadata>
  <g
     inkscape:label="Layer 1"
     inkscape:groupmode="layer"
     id="layer1"
     transform="translate(-67.728687,-32.938807)">
    <g
       id="g902">
      <path
         sodipodi:nodetypes="ccccc"
         inkscape:connector-curvature="0"
         id="path830"
         d="m 167.91592,122.375 c -1.47487,9.34252 -3.39849,9.13519 8.77228,8.59976 4.22318,-1.48014 17.44078,5.0964 15.72388,-2.21182 -7.29887,-3.58195 -12.76259,-2.94005 -20.63151,-4.5146 z"
         style="fill:#53463d;fill-opacity:1;stroke:#000000;stroke-width:0.26458332px;stroke-linecap:butt;stroke-linejoin:miter;stroke-opacity:1" />
      <path
         sodipodi:nodetypes="zcczzzzz"
         inkscape:connector-curvature="0"
         id="path836"
         d="m 102.09696,135.5692 c 0.55998,3.38004 3.14862,12.81676 9.20548,18.43012 13.56076,10.05573 34.63324,8.75064 47.6005,0.58981 8.46032,-5.53779 8.36394,-14.3571 2.96462,-11.53309 -5.39932,2.824 -29.69392,13.46694 -37.92312,12.17526 -8.2292,-1.29168 -15.99095,-11.89319 -18.44482,-16.22294 -2.45386,-4.32975 -4.50554,-9.73581 -3.57179,-10.30867 0.93374,-0.57286 -0.39085,3.48947 0.16913,6.86951 z"
         style="fill:#292420;fill-opacity:1;stroke:#000000;stroke-width:0.26458332px;stroke-linecap:butt;stroke-linejoin:miter;stroke-opacity:1" />
      <path
         sodipodi:nodetypes="ccczzzzccc"
         inkscape:connector-curvature="0"
         id="path832"
         d="m 122.59843,100.67432 c 9.12919,2.90708 4.95565,15.20343 -2.56498,18.92395 -3.50642,7.51593 -15.10506,4.80084 -18.10562,9.10142 1.09917,8.16182 5.11404,19.36347 12.32443,24.29621 7.21039,4.93274 16.50241,5.79505 25.73585,5.51742 9.23344,-0.27763 19.02981,-5.53705 24.24986,-12.01721 5.22005,-6.48016 5.89131,-12.4093 5.04406,-19.75722 -0.84725,-7.34792 -5.79094,-13.66263 -10.99365,-17.96079 -7.1658,-4.45311 -15.467,-7.19241 -23.74066,-8.55295 -3.97084,-0.484513 -8.08316,-0.879303 -11.94929,0.44917 z"
         style="fill:url(#linearGradient904);fill-opacity:1;stroke:#000000;stroke-width:0.26458332px;stroke-linecap:butt;stroke-linejoin:miter;stroke-opacity:1" />
      <path
         sodipodi:nodetypes="cccccccccccc"
         inkscape:connector-curvature="0"
         id="path840"
         d="m 73.098215,102.82869 c -1.512481,4.59376 5.580342,13.80733 8.228092,10.45154 -5.221415,-8.11455 5.536674,-2.16328 9.643136,-5.7385 5.655658,-3.40007 7.263272,-7.4219 4.435231,-14.759733 -5.289558,-1.318386 -11.946849,-7.950164 -13.147571,-11.272961 7.27529,-8.412091 14.419026,-6.008785 16.899889,-11.287231 2.585288,3.976066 11.511598,2.920627 12.959408,2.814529 1.11933,7.831884 11.44305,14.469777 9.05011,23.808513 -0.35311,6.589203 -3.92687,15.741373 -9.58481,19.272593 -4.91422,5.83767 -13.852325,6.53431 -20.920733,3.30932 -7.562699,-0.0756 -16.408417,-4.40495 -17.221695,-12.84236 0.397547,-1.31413 -0.96805,-2.42735 -0.341057,-3.75571 z"
         style="fill:url(#linearGradient906);fill-opacity:1;stroke:#000000;stroke-width:0.26458332px;stroke-linecap:butt;stroke-linejoin:miter;stroke-opacity:1" />
      <path
         sodipodi:nodetypes="cccccc"
         inkscape:connector-curvature="0"
         id="path844"
         d="m 99.156992,70.221805 c -1.325095,-7.588556 7.645098,-6.558553 8.027848,-14.916011 0.66551,-6.906639 3.0447,-13.426612 2.26203,-20.363567 7.85586,-7.023851 11.31227,7.583313 7.54097,13.092256 -0.28725,7.814978 -4.0832,17.17656 -4.87144,25.001851 -2.83033,-0.192477 -11.23833,1.730781 -12.959408,-2.814529 z"
         style="fill:#2c261d;fill-opacity:1;stroke:#000000;stroke-width:0.26458332px;stroke-linecap:butt;stroke-linejoin:miter;stroke-opacity:1" />
      <path
         sodipodi:nodetypes="ccc"
         inkscape:connector-curvature="0"
         id="path846"
         d="m 100.76061,64.475509 c 5.60187,4.33616 9.33527,-9.576851 2.60944,-2.905552 -0.84915,0.509556 -2.10666,2.086344 -2.60944,2.905552 z"
         style="fill:#5b4f41;fill-opacity:1;stroke:#000000;stroke-width:0.26458332px;stroke-linecap:butt;stroke-linejoin:miter;stroke-opacity:1" />
      <path
         sodipodi:nodetypes="cccc"
         inkscape:connector-curvature="0"
         id="path848"
         d="m 72.34974,101.34964 c -0.05845,1.83888 3.214262,15.16341 8.976567,11.93059 -2.222428,-4.80502 -7.740212,-6.53247 -8.495125,-12.3226 z"
         style="fill:#d2b49a;fill-opacity:1;stroke:#000000;stroke-width:0.26458332px;stroke-linecap:butt;stroke-linejoin:miter;stroke-opacity:1" />
      <path
         inkscape:connector-curvature="0"
         id="path850"
         d="m 77.240894,109.24315 c -0.608767,-4.81005 -4.202664,-8.31436 -2.10475,-1.36975 1.002978,0.0574 1.218367,1.16627 2.10475,1.36975 z"
         style="fill:#040400;fill-opacity:1;stroke:#000000;stroke-width:0.26458332px;stroke-linecap:butt;stroke-linejoin:miter;stroke-opacity:1" />
      <path
         sodipodi:nodetypes="ccc"
         inkscape:connector-curvature="0"
         id="path852"
         d="m 78.343379,106.26979 c 3.830405,1.27552 3.864252,8.35584 -1.403164,1.77065 0.448213,-1.2662 0.552196,-0.63773 1.403164,-1.77065 z"
         style="fill:#8c725b;fill-opacity:1;stroke:#000000;stroke-width:0.26458332px;stroke-linecap:butt;stroke-linejoin:miter;stroke-opacity:1" />
      <path
         sodipodi:nodetypes="cczcccc"
         inkscape:connector-curvature="0"
         id="path838"
         d="m 96.546367,121.46599 c 7.153773,9.40898 5.381463,7.2337 14.690113,6.6594 6.60647,-3.38096 17.34807,-11.09114 17.50243,-19.16572 0.15437,-8.07459 -6.14048,-8.28535 -8.29187,-8.998133 -2.4948,8.463963 -12.52315,18.946673 -20.472021,21.370813 l -1.27477,0.12101 z"
         style="fill:url(#linearGradient889);fill-opacity:1;stroke:#000000;stroke-width:0.26458332px;stroke-linecap:butt;stroke-linejoin:miter;stroke-opacity:1" />
      <path
         sodipodi:nodetypes="ccccc"
         inkscape:connector-curvature="0"
         id="path842"
         d="m 69.89098,80.110776 c -3.32341,7.027146 -2.775147,17.954718 3.207235,22.717914 2.600494,8.8266 18.012312,7.22539 23.526886,1.31297 C 99.65983,98.226701 97.95746,91.958512 91.177615,89.870821 87.111831,83.191311 77.977751,75.192665 69.89098,80.110776 Z"
         style="fill:#231c16;fill-opacity:1;stroke:#000000;stroke-width:0.26458332px;stroke-linecap:butt;stroke-linejoin:miter;stroke-opacity:1" />
    </g>
  </g>
</svg>
